<svg xmlns="http://www.w3.org/2000/svg" viewBox="0 0 1080 1350" role="img" data-asset-id="zh-CN-carousel-05" data-visual-system="system-atlas/v1">
<title>三条退出路线不能混用</title>
<desc>中文轮播第五页：项目退役、运行时卸载和固件恢复从共同起点分成三条不同路线。</desc>
<g id="background"><rect width="1080" height="1350" fill="#F4F1E8"/></g>
<g id="content">
<text x="56" y="48" fill="#0D4658" font-family="Microsoft YaHei UI" font-size="16" font-weight="400" text-anchor="start">HOME EDGE BOOTSTRAP</text>
<text x="1024" y="48" fill="#5E6872" font-family="Microsoft YaHei UI" font-size="16" font-weight="400" text-anchor="end">CAROUSEL / 05</text>
<line x1="56" y1="72" x2="1024" y2="72" stroke="#A9B0B4" stroke-width="2"/>
<text x="56" y="1317" fill="#5E6872" font-family="Microsoft YaHei UI" font-size="15" font-weight="400" text-anchor="start">中文系统图册</text>
<text x="1024" y="1317" fill="#0D4658" font-family="Microsoft YaHei UI" font-size="15" font-weight="400" text-anchor="end">SYSTEM ATLAS / V1</text>
<text x="64" y="146" fill="#0D4658" font-family="Microsoft YaHei UI" font-size="22" font-weight="400" text-anchor="start">05 / 安全退出</text>
<text x="64" y="238" fill="#17202A" font-family="Microsoft YaHei UI" font-size="50" font-weight="700" text-anchor="start">三条退出路线不能混用</text>
<text x="68" y="306" fill="#5E6872" font-family="Microsoft YaHei UI" font-size="24" font-weight="400" text-anchor="start">项目退役、运行时卸载、固件恢复</text>
<text x="68" y="342" fill="#5E6872" font-family="Microsoft YaHei UI" font-size="24" font-weight="400" text-anchor="start">目标不同，证据与风险边界也不同。</text>
<line x1="68" y1="382" x2="1012" y2="382" stroke="#176B87" stroke-width="4"/>
<circle cx="837" cy="116" r="7" fill="#A9B0B4"/>
<circle cx="869" cy="116" r="7" fill="#A9B0B4"/>
<circle cx="901" cy="116" r="7" fill="#A9B0B4"/>
<circle cx="933" cy="116" r="7" fill="#A9B0B4"/>
<circle cx="965" cy="116" r="7" fill="#176B87"/>
<circle cx="997" cy="116" r="7" fill="#A9B0B4"/>
<g id="page-diagram">
<rect x="390" y="500" width="300" height="100" fill="#176B87" stroke="#176B87" stroke-width="2" rx="8"/>
<text x="540" y="559" fill="#FFFFFF" font-family="Microsoft YaHei UI" font-size="24" font-weight="700" text-anchor="middle">当前受管状态</text>
<line x1="540" y1="600" x2="227.5667" y2="785.5073" stroke="#0D4658" stroke-width="4"/>
<polygon points="220,790 227.4591,775.8451 235.9984,790.227" fill="#0D4658"/>
<rect x="70" y="790" width="300" height="100" fill="#FFFFFF" stroke="#0D4658" stroke-width="2" rx="8"/>
<text x="220" y="849" fill="#17202A" font-family="Microsoft YaHei UI" font-size="24" font-weight="700" text-anchor="middle">项目退役</text>
<line x1="540" y1="600" x2="563.852" y2="781.2752" stroke="#A9651A" stroke-width="4"/>
<polygon points="565,790 554.929,777.5671 571.5121,775.3852" fill="#A9651A"/>
<rect x="415" y="790" width="300" height="100" fill="#FFFFFF" stroke="#A9651A" stroke-width="2" rx="8"/>
<text x="565" y="849" fill="#17202A" font-family="Microsoft YaHei UI" font-size="24" font-weight="700" text-anchor="middle">运行时卸载</text>
<line x1="540" y1="600" x2="902.1718" y2="785.9801" stroke="#A33A32" stroke-width="4"/>
<polygon points="910,790 894.0457,791.2084 901.6862,776.3296" fill="#A33A32"/>
<rect x="760" y="790" width="300" height="100" fill="#FFFFFF" stroke="#A33A32" stroke-width="2" rx="8"/>
<text x="910" y="849" fill="#17202A" font-family="Microsoft YaHei UI" font-size="24" font-weight="700" text-anchor="middle">固件恢复</text>
<text x="540" y="1038" fill="#0D4658" font-family="Microsoft YaHei UI" font-size="28" font-weight="700" text-anchor="middle">目标不同</text>
<text x="540" y="1080" fill="#0D4658" font-family="Microsoft YaHei UI" font-size="28" font-weight="700" text-anchor="middle">证据、风险与操作边界也不同</text>
</g>
</g>
</svg>
