<svg xmlns="http://www.w3.org/2000/svg" viewBox="0 0 1080 1350" role="img" data-asset-id="zh-CN-carousel-03" data-visual-system="system-atlas/v1">
<title>每次动作都回到证据</title>
<desc>中文轮播第三页：观测、计划、应用、验证与恢复构成持续生命周期闭环。</desc>
<g id="background"><rect width="1080" height="1350" fill="#F4F1E8"/></g>
<g id="content">
<text x="56" y="48" fill="#0D4658" font-family="Microsoft YaHei UI" font-size="16" font-weight="400" text-anchor="start">HOME EDGE BOOTSTRAP</text>
<text x="1024" y="48" fill="#5E6872" font-family="Microsoft YaHei UI" font-size="16" font-weight="400" text-anchor="end">CAROUSEL / 03</text>
<line x1="56" y1="72" x2="1024" y2="72" stroke="#A9B0B4" stroke-width="2"/>
<text x="56" y="1317" fill="#5E6872" font-family="Microsoft YaHei UI" font-size="15" font-weight="400" text-anchor="start">中文系统图册</text>
<text x="1024" y="1317" fill="#0D4658" font-family="Microsoft YaHei UI" font-size="15" font-weight="400" text-anchor="end">SYSTEM ATLAS / V1</text>
<text x="64" y="146" fill="#0D4658" font-family="Microsoft YaHei UI" font-size="22" font-weight="400" text-anchor="start">03 / 生命周期</text>
<text x="64" y="238" fill="#17202A" font-family="Microsoft YaHei UI" font-size="50" font-weight="700" text-anchor="start">每次动作都回到证据</text>
<text x="68" y="306" fill="#5E6872" font-family="Microsoft YaHei UI" font-size="24" font-weight="400" text-anchor="start">观测、计划、应用、验证、恢复组成闭环</text>
<text x="68" y="342" fill="#5E6872" font-family="Microsoft YaHei UI" font-size="24" font-weight="400" text-anchor="start">不是只运行一次的安装脚本。</text>
<line x1="68" y1="382" x2="1012" y2="382" stroke="#176B87" stroke-width="4"/>
<circle cx="837" cy="116" r="7" fill="#A9B0B4"/>
<circle cx="869" cy="116" r="7" fill="#A9B0B4"/>
<circle cx="901" cy="116" r="7" fill="#176B87"/>
<circle cx="933" cy="116" r="7" fill="#A9B0B4"/>
<circle cx="965" cy="116" r="7" fill="#A9B0B4"/>
<circle cx="997" cy="116" r="7" fill="#A9B0B4"/>
<g id="page-diagram">
<circle cx="540" cy="530" r="62" fill="#FFFFFF" stroke="#176B87" stroke-width="4"/>
<text x="540" y="537" fill="#17202A" font-family="Microsoft YaHei UI" font-size="22" font-weight="700" text-anchor="middle">观测</text>
<line x1="540" y1="530" x2="792.3776" y2="675.6024" stroke="#176B87" stroke-width="4"/>
<polygon points="800,680 784.0057,680.4275 792.3641,665.9397" fill="#176B87"/>
<circle cx="800" cy="680" r="62" fill="#FFFFFF" stroke="#176B87" stroke-width="4"/>
<text x="800" y="687" fill="#17202A" font-family="Microsoft YaHei UI" font-size="22" font-weight="700" text-anchor="middle">计划</text>
<line x1="800" y1="680" x2="702.9598" y2="951.7126" stroke="#176B87" stroke-width="4"/>
<polygon points="700,960 696.712,944.3415 712.4636,949.967" fill="#176B87"/>
<circle cx="700" cy="960" r="62" fill="#FFFFFF" stroke="#176B87" stroke-width="4"/>
<text x="700" y="967" fill="#17202A" font-family="Microsoft YaHei UI" font-size="22" font-weight="700" text-anchor="middle">应用</text>
<line x1="700" y1="960" x2="388.8" y2="960" stroke="#176B87" stroke-width="4"/>
<polygon points="380,960 393.6404,951.637 393.6404,968.363" fill="#176B87"/>
<circle cx="380" cy="960" r="62" fill="#287A5A" stroke="#176B87" stroke-width="4"/>
<text x="380" y="967" fill="#FFFFFF" font-family="Microsoft YaHei UI" font-size="22" font-weight="700" text-anchor="middle">验证</text>
<line x1="380" y1="960" x2="282.9597" y2="688.2874" stroke="#176B87" stroke-width="4"/>
<polygon points="280,680 292.4635,690.033 276.712,695.6585" fill="#176B87"/>
<circle cx="280" cy="680" r="62" fill="#FFFFFF" stroke="#176B87" stroke-width="4"/>
<text x="280" y="687" fill="#17202A" font-family="Microsoft YaHei UI" font-size="22" font-weight="700" text-anchor="middle">恢复</text>
<line x1="280" y1="680" x2="532.3776" y2="534.3976" stroke="#176B87" stroke-width="4"/>
<polygon points="540,530 532.3641,544.0603 524.0057,529.5725" fill="#176B87"/>
<text x="540" y="742" fill="#0D4658" font-family="Microsoft YaHei UI" font-size="34" font-weight="700" text-anchor="middle">每次动作</text>
<text x="540" y="786" fill="#0D4658" font-family="Microsoft YaHei UI" font-size="34" font-weight="700" text-anchor="middle">都回到证据</text>
</g>
</g>
</svg>
